<?xml version="1.0" encoding="UTF-8"?>
<svg id="Layer_2" data-name="Layer 2" xmlns="http://www.w3.org/2000/svg" viewBox="0 0 318.17 230.84">
  <defs>
    <style>
      .cls-1 {
        fill: #fff;
        stroke-width: 0px;
      }
    </style>
  </defs>
  <g id="Layer_1-2" data-name="Layer 1">
    <path class="cls-1" d="M296.18,167.86c4.94,4.18,6.45,9.41,6.24,15.4-.16,4.5.06,9.01-.07,13.5-.15,5-2.34,7.38-7.36,7.56-6.16.22-12.34.23-18.5-.01-4.93-.19-7.22-2.72-7.33-7.65-.12-5.33-.64-10.77.17-15.98.71-4.54,3.02-8.83,4.62-13.23.45.06.91.13,1.36.19-1.02-1.26-2.1-2.47-3.04-3.78-5.33-7.46-3.64-17.46,3.69-23.17,1.37-1.06,2.98-2.88,3.03-4.39.28-9.32.14-18.66.14-28.81-6.78,2.82-13.12,5.45-19.97,8.29,0,2.87,0,5.81,0,8.76,0,17.84-.06,35.68.02,53.52.07,14.14-5.99,24.63-18.33,31.45-33.65,18.6-69.46,25.05-107.52,19.28-20.32-3.08-39.3-9.8-57.08-20.02-11.38-6.54-17.09-16.5-17.15-29.57-.1-19.84-.09-39.68.04-59.52.02-2.94-.88-4.32-3.62-5.44-14-5.74-27.87-11.78-41.83-17.62C5.2,93.09.22,87.04,0,77.67c-.2-8.85,4.65-15.42,13.86-19.32C57.04,40.06,100.25,21.85,143.37,3.43c10.6-4.53,20.77-4.59,31.38-.06,43.12,18.43,86.32,36.68,129.53,54.89,8.69,3.66,13.93,9.74,13.89,19.31-.03,9.56-5.03,16.54-14.08,19-10.09,2.74-13.13,8.44-11.86,18.34.86,6.73.07,13.65.24,20.49.04,1.46.6,3.37,1.63,4.27,10.5,9.1,11.22,16.73,2.09,28.2ZM158.98,142.37c3.58-1.05,7.18-1.75,10.48-3.14,42.88-18.08,85.71-36.27,128.57-54.39,3.51-1.48,6.95-3.01,6.86-7.5-.08-4.21-3.36-5.7-6.71-7.11-43.01-18.19-86.02-36.39-128.99-54.68-6.84-2.91-13.38-2.89-20.24.05-28.57,12.23-57.21,24.29-85.83,36.41-14.84,6.29-29.76,12.41-44.46,19.02-2.29,1.03-4.97,4.19-5,6.4-.03,2.19,3.02,4.46,4.82,6.61.38.45,1.19.55,1.8.8,43,18.22,85.99,36.46,129.02,54.62,3.01,1.27,6.28,1.91,9.68,2.91ZM72.76,121.6c-.22,1.33-.41,1.96-.41,2.59-.02,18.17-.08,36.34.01,54.51.04,8.76,4.03,15.18,11.88,19.31,49.44,26.05,98.91,26.3,148.61.64,9.25-4.77,13.2-11.98,13.1-22.14-.17-16.5-.04-33-.06-49.51,0-1.59-.16-3.18-.26-5.19-2.01.73-3.57,1.21-5.07,1.84-21.58,9.14-43.25,18.1-64.7,27.55-11.43,5.04-22.26,4.93-33.68-.1-22.81-10.04-45.86-19.53-69.42-29.5ZM282.48,190.47h6.62c0-3.2.28-6.33-.14-9.36-.17-1.25-1.84-2.29-2.83-3.43-1.22,1.09-3.27,2.03-3.49,3.29-.52,3-.17,6.14-.17,9.5ZM286.11,149.92c-1.54,1.76-3.24,2.86-3.26,3.98-.02,1.15,1.61,2.33,2.51,3.5,1.23-1.03,3.05-1.86,3.47-3.15.28-.86-1.42-2.38-2.73-4.33Z"/>
  </g>
</svg>