<svg width="1920" height="989" viewBox="0 0 1920 989" fill="none" xmlns="http://www.w3.org/2000/svg">
<path fill-rule="evenodd" clip-rule="evenodd" d="M1888.17 972.383V981.35H1888.67V972.383H1919.33V971.883H1888.67V878.856H1919.33V878.356H1888.67V785.33H1919.33V784.83H1888.67V691.804H1911.19V691.304H1888.67V598.277H1911.19V597.777H1888.67V504.75H1919.33V504.25H1888.67V411.225H1919.33V410.725H1888.67V317.698H1919.33V317.198H1888.67V224.171H1919.33V223.671H1888.67V130.645H1919.33V130.145H1888.67V37.1187H1919.33V36.6187H1888.67V0H1888.17V36.6187H1795.14V6.77686H1794.64V36.6187H1701.62V6.77686H1701.12V36.6187H1608.09V6.77686H1607.59V36.6187H1514.56V6.77686H1514.06V36.6187H1421.04V6.77686H1420.54V36.6187H1327.51V6.77686H1327.01V36.6187H1233.99V6.77686H1233.49V36.6187H1140.46V6.77686H1139.96V36.6187H1046.93V6.77686H1046.43V36.6187H953.406V6.77686H952.906V36.6187H859.881V6.77686H859.381V36.6187H766.354V14.9097H765.854V36.6187H672.828V14.9097H672.328V36.6187H579.301V13.5547H578.801V36.6187H485.774V13.5547H485.274V36.6187H392.248V13.5547H391.748V36.6187H298.722V13.5547H298.222V36.6187H205.195V14.9097H204.695V36.6187H111.669V13.5547H111.169V36.6187H18.1426V13.5547H17.6426V36.6187H2.71094V37.1187H17.6426V130.145H2.71094V130.645H17.6426V223.671H0V224.171H17.6426V317.198H0V317.698H17.6426V410.725H0V411.225H17.6426V504.25H0V504.75H17.6426V597.777H0V598.277H17.6426V691.304H0V691.804H17.6426V784.83H0V785.33H17.6426V878.356H0V878.856H17.6426V971.883H0V972.383H17.6426V988.127H18.1426V972.383H111.169V988.127H111.669V972.383H204.695V988.127H205.195V972.383H298.222V988.127H298.722V972.383H391.748V988.127H392.248V972.383H485.274V988.127H485.774V972.383H578.801V988.127H579.301V972.383H672.328V988.127H672.828V972.383H765.854V988.127H766.354V972.383H859.381V988.127H859.881V972.383H952.906V988.127H953.406V972.383H1046.43V988.127H1046.93V972.383H1139.96V988.127H1140.46V972.383H1233.49V988.127H1233.99V972.383H1327.01V988.127H1327.51V972.383H1420.54V988.127H1421.04V972.383H1514.06V988.127H1514.56V972.383H1607.59V988.127H1608.09V972.383H1701.12V988.127H1701.62V972.383H1794.64V988.127H1795.14V972.383H1888.17ZM1888.17 971.883V878.856H1795.14V971.883H1888.17ZM1888.17 878.356V785.33H1795.14V878.356H1888.17ZM1888.17 784.83V691.804H1795.14V784.83H1888.17ZM1888.17 691.304V598.277H1795.14V691.304H1888.17ZM1888.17 597.777V504.75H1795.14V597.777H1888.17ZM1888.17 504.25V411.225H1795.14V504.25H1888.17ZM1888.17 410.725V317.698H1795.14V410.725H1888.17ZM1888.17 317.198V224.171H1795.14V317.198H1888.17ZM1888.17 223.671V130.645H1795.14V223.671H1888.17ZM1888.17 130.145V37.1187H1795.14V130.145H1888.17ZM1701.62 37.1187H1794.64V130.145H1701.62V37.1187ZM1701.62 130.645H1794.64V223.671H1701.62V130.645ZM1701.62 224.171H1794.64V317.198H1701.62V224.171ZM1701.62 317.698H1794.64V410.725H1701.62V317.698ZM1701.62 411.225H1794.64V504.25H1701.62V411.225ZM1701.62 504.75H1794.64V597.777H1701.62V504.75ZM1701.62 598.277H1794.64V691.304H1701.62V598.277ZM1701.62 691.804H1794.64V784.83H1701.62V691.804ZM1701.62 785.33H1794.64V878.356H1701.62V785.33ZM1701.62 878.856H1794.64V971.883H1701.62V878.856ZM1701.12 971.883V878.856H1608.09V971.883H1701.12ZM1701.12 878.356V785.33H1608.09V878.356H1701.12ZM1701.12 784.83V691.804H1608.09V784.83H1701.12ZM1701.12 691.304V598.277H1608.09V691.304H1701.12ZM1701.12 597.777V504.75H1608.09V597.777H1701.12ZM1701.12 504.25V411.225H1608.09V504.25H1701.12ZM1701.12 410.725V317.698H1608.09V410.725H1701.12ZM1701.12 317.198V224.171H1608.09V317.198H1701.12ZM1701.12 223.671V130.645H1608.09V223.671H1701.12ZM1701.12 130.145V37.1187H1608.09V130.145H1701.12ZM1514.56 37.1187H1607.59V130.145H1514.56V37.1187ZM1514.56 130.645H1607.59V223.671H1514.56V130.645ZM1514.56 224.171H1607.59V317.198H1514.56V224.171ZM1514.56 317.698H1607.59V410.725H1514.56V317.698ZM1514.56 411.225H1607.59V504.25H1514.56V411.225ZM1514.56 504.75H1607.59V597.777H1514.56V504.75ZM1514.56 598.277H1607.59V691.304H1514.56V598.277ZM1514.56 691.804H1607.59V784.83H1514.56V691.804ZM1514.56 785.33H1607.59V878.356H1514.56V785.33ZM1514.56 878.856H1607.59V971.883H1514.56V878.856ZM1514.06 971.883V878.856H1421.04V971.883H1514.06ZM1514.06 878.356V785.33H1421.04V878.356H1514.06ZM1514.06 784.83V691.804H1421.04V784.83H1514.06ZM1514.06 691.304V598.277H1421.04V691.304H1514.06ZM1514.06 597.777V504.75H1421.04V597.777H1514.06ZM1514.06 504.25V411.225H1421.04V504.25H1514.06ZM1514.06 410.725V317.698H1421.04V410.725H1514.06ZM1514.06 317.198V224.171H1421.04V317.198H1514.06ZM1514.06 223.671V130.645H1421.04V223.671H1514.06ZM1514.06 130.145V37.1187H1421.04V130.145H1514.06ZM1327.51 37.1187H1420.54V130.145H1327.51V37.1187ZM1327.51 130.645H1420.54V223.671H1327.51V130.645ZM1327.51 224.171H1420.54V317.198H1327.51V224.171ZM1327.51 317.698H1420.54V410.725H1327.51V317.698ZM1327.51 411.225H1420.54V504.25H1327.51V411.225ZM1327.51 504.75H1420.54V597.777H1327.51V504.75ZM1327.51 598.277H1420.54V691.304H1327.51V598.277ZM1327.51 691.804H1420.54V784.83H1327.51V691.804ZM1327.51 785.33H1420.54V878.356H1327.51V785.33ZM1327.51 878.856H1420.54V971.883H1327.51V878.856ZM1327.01 971.883V878.856H1233.99V971.883H1327.01ZM1327.01 878.356V785.33H1233.99V878.356H1327.01ZM1327.01 784.83V691.804H1233.99V784.83H1327.01ZM1327.01 691.304V598.277H1233.99V691.304H1327.01ZM1327.01 597.777V504.75H1233.99V597.777H1327.01ZM1327.01 504.25V411.225H1233.99V504.25H1327.01ZM1327.01 410.725V317.698H1233.99V410.725H1327.01ZM1327.01 317.198V224.171H1233.99V317.198H1327.01ZM1327.01 223.671V130.645H1233.99V223.671H1327.01ZM1327.01 130.145V37.1187H1233.99V130.145H1327.01ZM1140.46 37.1187H1233.49V130.145H1140.46V37.1187ZM1140.46 130.645H1233.49V223.671H1140.46V130.645ZM1140.46 224.171H1233.49V317.198H1140.46V224.171ZM1140.46 317.698H1233.49V410.725H1140.46V317.698ZM1140.46 411.225H1233.49V504.25H1140.46V411.225ZM1140.46 504.75H1233.49V597.777H1140.46V504.75ZM1140.46 598.277H1233.49V691.304H1140.46V598.277ZM1140.46 691.804H1233.49V784.83H1140.46V691.804ZM1140.46 785.33H1233.49V878.356H1140.46V785.33ZM1140.46 878.856H1233.49V971.883H1140.46V878.856ZM1139.96 971.883V878.856H1046.93V971.883H1139.96ZM1139.96 878.356V785.33H1046.93V878.356H1139.96ZM1139.96 784.83V691.804H1046.93V784.83H1139.96ZM1139.96 691.304V598.277H1046.93V691.304H1139.96ZM1139.96 597.777V504.75H1046.93V597.777H1139.96ZM1139.96 504.25V411.225H1046.93V504.25H1139.96ZM1139.96 410.725V317.698H1046.93V410.725H1139.96ZM1139.96 317.198V224.171H1046.93V317.198H1139.96ZM1139.96 223.671V130.645H1046.93V223.671H1139.96ZM1139.96 130.145V37.1187H1046.93V130.145H1139.96ZM953.406 37.1187H1046.43V130.145H953.406V37.1187ZM953.406 130.645H1046.43V223.671H953.406V130.645ZM953.406 224.171H1046.43V317.198H953.406V224.171ZM953.406 317.698H1046.43V410.725H953.406V317.698ZM953.406 411.225H1046.43V504.25H953.406V411.225ZM953.406 504.75H1046.43V597.777H953.406V504.75ZM953.406 598.277H1046.43V691.304H953.406V598.277ZM953.406 691.804H1046.43V784.83H953.406V691.804ZM953.406 785.33H1046.43V878.356H953.406V785.33ZM953.406 878.856H1046.43V971.883H953.406V878.856ZM952.906 971.883V878.856H859.881V971.883H952.906ZM952.906 878.356V785.33H859.881V878.356H952.906ZM952.906 784.83V691.804H859.881V784.83H952.906ZM952.906 691.304V598.277H859.881V691.304H952.906ZM952.906 597.777V504.75H859.881V597.777H952.906ZM952.906 504.25V411.225H859.881V504.25H952.906ZM952.906 410.725V317.698H859.881V410.725H952.906ZM952.906 317.198V224.171H859.881V317.198H952.906ZM952.906 223.671V130.645H859.881V223.671H952.906ZM952.906 130.145V37.1187H859.881V130.145H952.906ZM859.381 878.856V971.883H766.354V878.856H859.381ZM859.381 785.33V878.356H766.354V785.33H859.381ZM859.381 691.804V784.83H766.354V691.804H859.381ZM859.381 598.277V691.304H766.354V598.277H859.381ZM859.381 504.75V597.777H766.354V504.75H859.381ZM859.381 411.225V504.25H766.354V411.225H859.381ZM859.381 317.698V410.725H766.354V317.698H859.381ZM859.381 224.171V317.198H766.354V224.171H859.381ZM859.381 130.645V223.671H766.354V130.645H859.381ZM859.381 37.1187V130.145H766.354V37.1187H859.381ZM298.222 691.804V784.83H205.195V691.804H298.222ZM111.669 784.83H204.695V691.804H111.669V784.83ZM111.169 784.83H18.1426V691.804H111.169V784.83ZM765.854 971.883V878.856H672.828V971.883H765.854ZM765.854 878.356V785.33H672.828V878.356H765.854ZM765.854 784.83V691.804H672.828V784.83H765.854ZM765.854 691.304V598.277H672.828V691.304H765.854ZM765.854 597.777V504.75H672.828V597.777H765.854ZM765.854 504.25V411.225H672.828V504.25H765.854ZM765.854 410.725V317.698H672.828V410.725H765.854ZM765.854 317.198V224.171H672.828V317.198H765.854ZM765.854 223.671V130.645H672.828V223.671H765.854ZM765.854 130.145V37.1187H672.828V130.145H765.854ZM579.301 37.1187H672.328V130.145H579.301V37.1187ZM579.301 130.645H672.328V223.671H579.301V130.645ZM579.301 224.171H672.328V317.198H579.301V224.171ZM579.301 317.698H672.328V410.725H579.301V317.698ZM579.301 411.225H672.328V504.25H579.301V411.225ZM579.301 504.75H672.328V597.777H579.301V504.75ZM579.301 598.277H672.328V691.304H579.301V598.277ZM579.301 691.804H672.328V784.83H579.301V691.804ZM579.301 785.33H672.328V878.356H579.301V785.33ZM579.301 878.856H672.328V971.883H579.301V878.856ZM578.801 971.883V878.856H485.774V971.883H578.801ZM578.801 878.356V785.33H485.774V878.356H578.801ZM578.801 784.83V691.804H485.774V784.83H578.801ZM578.801 691.304V598.277H485.774V691.304H578.801ZM578.801 597.777V504.75H485.774V597.777H578.801ZM578.801 504.25V411.225H485.774V504.25H578.801ZM578.801 410.725V317.698H485.774V410.725H578.801ZM578.801 317.198V224.171H485.774V317.198H578.801ZM578.801 223.671V130.645H485.774V223.671H578.801ZM578.801 130.145V37.1187H485.774V130.145H578.801ZM392.248 37.1187H485.274V130.145H392.248V37.1187ZM392.248 130.645H485.274V223.671H392.248V130.645ZM392.248 224.171H485.274V317.198H392.248V224.171ZM392.248 317.698H485.274V410.725H392.248V317.698ZM392.248 411.225H485.274V504.25H392.248V411.225ZM392.248 504.75H485.274V597.777H392.248V504.75ZM392.248 598.277H485.274V691.304H392.248V598.277ZM392.248 691.804H485.274V784.83H392.248V691.804ZM392.248 785.33H485.274V878.356H392.248V785.33ZM392.248 878.856H485.274V971.883H392.248V878.856ZM391.748 971.883V878.856H298.722V971.883H391.748ZM391.748 878.356V785.33H298.722V878.356H391.748ZM391.748 784.83V691.804H298.722V784.83H391.748ZM391.748 691.304V598.277H298.722V691.304H391.748ZM391.748 597.777V504.75H298.722V597.777H391.748ZM391.748 504.25V411.225H298.722V504.25H391.748ZM391.748 410.725V317.698H298.722V410.725H391.748ZM391.748 317.198V224.171H298.722V317.198H391.748ZM391.748 223.671V130.645H298.722V223.671H391.748ZM391.748 130.145V37.1187H298.722V130.145H391.748ZM111.169 691.304H18.1426V598.277H111.169V691.304ZM111.169 597.777H18.1426V504.75H111.169V597.777ZM111.169 504.25H18.1426V411.225H111.169V504.25ZM111.169 410.725H18.1426V317.698H111.169V410.725ZM111.169 317.198H18.1426V224.171H111.169V317.198ZM111.169 223.671H18.1426V130.645H111.169V223.671ZM111.169 130.145H18.1426V37.1187H111.169V130.145ZM111.169 971.883H18.1426V878.856H111.169V971.883ZM111.169 878.356H18.1426V785.33H111.169V878.356ZM111.669 691.304H204.695V598.277H111.669V691.304ZM111.669 597.777H204.695V504.75H111.669V597.777ZM111.669 504.25H204.695V411.225H111.669V504.25ZM111.669 410.725H204.695V317.698H111.669V410.725ZM111.669 317.198H204.695V224.171H111.669V317.198ZM111.669 223.671H204.695V130.645H111.669V223.671ZM111.669 130.145H204.695V37.1187H111.669V130.145ZM111.669 971.883H204.695V878.856H111.669V971.883ZM111.669 878.356H204.695V785.33H111.669V878.356ZM298.222 691.304H205.195V598.277H298.222V691.304ZM298.222 597.777H205.195V504.75H298.222V597.777ZM298.222 504.25H205.195V411.225H298.222V504.25ZM298.222 410.725H205.195V317.698H298.222V410.725ZM298.222 317.198H205.195V224.171H298.222V317.198ZM298.222 223.671H205.195V130.645H298.222V223.671ZM298.222 130.145H205.195V37.1187H298.222V130.145ZM298.222 971.883H205.195V878.856H298.222V971.883ZM298.222 878.356H205.195V785.33H298.222V878.356Z" fill="url(#paint0_radial_438_5972)" fill-opacity="0.7"/>
<defs>
<radialGradient id="paint0_radial_438_5972" cx="0" cy="0" r="1" gradientUnits="userSpaceOnUse" gradientTransform="translate(959.663 494.064) rotate(90) scale(494.064 959.663)">
<stop stop-color="#907BFF"/>
<stop offset="1" stop-color="#907BFF" stop-opacity="0"/>
</radialGradient>
</defs>
</svg>
