<?xml version="1.0" encoding="UTF-8"?>
<svg id="Layer_2" data-name="Layer 2" xmlns="http://www.w3.org/2000/svg" viewBox="0 0 320.22 283.89">
  <defs>
    <style>
      .cls-1 {
        fill: #fff;
        stroke-width: 0px;
      }
    </style>
  </defs>
  <g id="Layer_1-2" data-name="Layer 1">
    <path class="cls-1" d="M95.93,52.92c0-9.38.41-18.05-.1-26.66-.73-12.52,7.68-25.93,25.29-26.08,26-.23,52.01-.23,78.01,0,17.69.16,26.02,13.63,25.3,26.07-.5,8.61-.1,17.28-.1,26.66,2.17,0,3.92,0,5.68,0,13.33,0,26.67-.05,40,.02,28.32.15,50.01,21.62,50.11,50.01.16,46.01.06,92.03.04,138.04-.01,25.66-17.19,42.83-43.02,42.88-40.34.07-80.68.02-121.01.02-37.5,0-75.01,0-112.51,0-11.18,0-21.4-2.67-29.92-10.38-8.6-7.78-13.47-17.47-13.51-29.02-.17-47.85-.35-95.7.05-143.54.22-26.59,22.33-47.77,48.99-48,15.31-.13,30.63-.02,46.7-.02ZM19.26,157.44c-.03.47-.17,1.9-.17,3.32-.01,26.83-.03,53.66,0,80.5.02,14.96,8.56,23.6,23.53,23.61,78.31.04,156.63.04,234.94,0,14.99,0,23.57-8.63,23.59-23.55.03-26.83.01-53.66,0-80.5,0-1.44-.13-2.88-.21-4.41-4.48,1.58-8.57,3.42-12.86,4.49-28.55,7.07-57.09,14.17-85.75,20.78-5.6,1.29-7.27,3.26-7.22,9.04.14,13.52-9.17,22.26-22.73,22.36-8.5.06-17,.1-25.49-.01-12.33-.16-21.3-8.91-21.9-21.29-.13-2.77-.02-5.55-.02-8.09-35.73-8.87-70.66-17.54-105.73-26.24ZM195.56,164.04c6.85-1.68,13.13-3.23,19.42-4.76,23.08-5.63,46.17-11.23,69.25-16.88,8.27-2.02,15-6.94,15.95-15.32,1.2-10.63,1.74-21.82-.29-32.2-2.96-15.16-15.1-23.02-31.31-23.02-71.31-.03-142.62-.01-213.93,0-2.33,0-4.67-.03-7,.09-12.16.62-23.86,8.78-26.58,20.62-1.98,8.59-1.73,17.77-1.89,26.7-.24,13.31,6,20.65,18.87,23.66,14.72,3.45,29.36,7.19,44.05,10.77,14.14,3.44,28.29,6.84,42.46,10.26,2.86-16.19,13.69-22.12,26.38-21.27,6.97.47,13.99.02,20.99.12,2.47.04,5.03.16,7.37.85,9.89,2.91,14.84,10.05,16.28,20.39ZM114.8,52.69h90.66c0-9.79.12-19.41-.07-29.02-.06-3.22-2.53-4.5-5.53-4.54-4.66-.06-9.32-.04-13.99-.04-21.15,0-42.3,0-63.44,0-3.47,0-7.36.06-7.52,4.56-.34,9.6-.11,19.22-.11,29.05ZM176.35,178.2c0-4.16-.03-8.32.01-12.48.03-2.92-1.42-4.31-4.25-4.32-7.98-.03-15.97-.03-23.95,0-2.81,0-4.29,1.37-4.28,4.3.03,8.15.03,16.3,0,24.45-.01,2.9,1.34,4.24,4.25,4.23,7.98-.04,15.97-.04,23.95,0,2.89.01,4.3-1.29,4.27-4.2-.04-3.99,0-7.98-.01-11.98Z"/>
  </g>
</svg>