<?xml version="1.0" encoding="UTF-8"?>
<svg id="Layer_1" data-name="Layer 1" xmlns="http://www.w3.org/2000/svg" viewBox="0 0 488.01 488.01">
  <defs>
    <style>
      .cls-1 {
        fill: #897dff;
      }

      .cls-1, .cls-2 {
        stroke-width: 0px;
      }

      .cls-2 {
        fill: #e9e9ff;
      }
    </style>
  </defs>
  <path class="cls-1" d="M297.56,308.8c-20.99-11.86-42.37-22.98-63.79-34.01-36.52-18.8-73.08-37.51-109.69-56.12-3.23-1.64-4.52-3.42-4.48-7.14.19-21.63.07-43.27.16-64.91,0-1.6-1.11-3.74,1.27-4.81,6.29,5.29,14.03,8.02,21.13,11.85,16.04,8.65,31.92,17.59,48.43,25.34,14.9,8.05,29.69,16.32,44.73,24.1,42.66,22.06,85.41,43.96,128.19,65.79,3.48,1.78,5.02,3.68,4.97,7.83-.25,21.46-.08,42.92-.18,64.38,0,1.55-.26,2.8-1.32,4.68-.62-.51-1.17-1.14-1.86-1.52-8.1-4.49-16.73-8.08-24.67-12.69-14.03-8.13-28.67-15.03-42.88-22.77Z"/>
  <path class="cls-1" d="M239.75,422.28c-9.39-3.42-17.94-8.58-26.84-13.01-29.48-14.67-58.81-29.63-88.33-44.23-4.19-2.07-5.53-4.5-5.47-9.07.25-21.64.11-43.28.12-64.92,0-1.6,0-3.19,0-5.6,6.61,3.28,12.51,6.19,18.41,9.13,32.77,16.29,65.54,32.59,98.31,48.87,1.33.66,2.76,1.13,4.14,1.68-.04,4.31-.09,8.63-.11,12.94-.08,21.4-.16,42.81-.24,64.21Z"/>
  <path class="cls-1" d="M248.02,65.95c2.05-.79,3.5.69,5.06,1.48,37.19,18.65,74.35,37.37,111.58,55.96,3.09,1.54,4.27,3.32,4.24,6.85-.17,22.65-.09,45.3-.09,67.95,0,1.11,0,2.21,0,4.1-4.33-2.1-8.03-3.86-11.69-5.69-35.01-17.43-70.01-34.87-105.02-52.28-1.33-.66-2.77-1.1-4.16-1.64.03-25.57.05-51.15.08-76.72Z"/>
  <path class="cls-2" d="M212.02,86.94c-8.43,4.49-16.58,9.45-24.63,14.58-2.3,1.46-4.66,2.83-7.05,4.14-11.9,6.53-23.33,13.85-34.93,20.87-8.21,4.97-16.8,9.34-24.4,15.28,6.29,5.29,14.03,8.02,21.13,11.85,16.03,8.65,31.92,17.59,48.43,25.34l27.52-17.83c1.04-.7,2.06-1.43,3.12-2.1,7.98-5.05,16.52-9.21,24.02-15.02.9-.46,1.8-.92,2.7-1.39.03-25.57.05-51.15.08-76.72-12.61,5.95-24.19,13.66-36,20.98Z"/>
  <path class="cls-2" d="M365.1,344.26c-8.1-4.49-16.73-8.08-24.67-12.69-14.03-8.13-28.67-15.03-42.88-22.77-.81.58-1.59,1.19-2.43,1.72-11.05,7.06-22.1,14.1-33.16,21.15-7.17,4.1-14.26,8.34-20.94,13.22-.35-.07-.66,0-.93.23-.04,4.31-.09,8.63-.11,12.94-.08,21.4-.16,42.81-.24,64.21,0-.34,3.87-1.99,4.34-2.24,1.49-.8,2.98-1.61,4.45-2.44,5.59-3.15,11.04-6.52,16.49-9.9,11.82-7.32,23.99-14.04,35.84-21.29s23.69-14.11,35.41-21.37c.12-.07.23-.15.35-.22l.03-.02c10.14-6.27,20.75-11.8,30.3-19.01-.62-.51-1.17-1.14-1.86-1.52Z"/>
</svg>