<?xml version="1.0" encoding="UTF-8"?>
<svg id="Layer_2" data-name="Layer 2" xmlns="http://www.w3.org/2000/svg" viewBox="0 0 290.82 281.16">
  <defs>
    <style>
      .cls-1 {
        fill: #fff;
        stroke-width: 0px;
      }
    </style>
  </defs>
  <g id="Layer_1-2" data-name="Layer 1">
    <g>
      <path class="cls-1" d="M112.75,17.04c-7.56-.33-14.62-.23-21.64,2.97-11.28,5.15-23.19,2.87-34.37,1.7-1.98,3.09-3.24,7.01-5.92,8.69-2.79,1.75-6.93,1.45-10.5,1.85-1.97.22-4,.08-5.99.03-6.62-.17-10.19-3.61-10.34-10.13-.09-4.16-.13-8.34.07-12.49.25-5.15,3.8-8.56,8.99-8.74,3.99-.14,8-.09,12-.02,6.36.1,9.99,3.36,10.12,9.75.07,3.27,1.21,4.29,4.28,4.59,11.29,1.1,22.27,1.99,33.31-2.85,10.22-4.48,21.3-2.24,32.05-.89,1.29.16,2.56.42,3.81.63C131.42,1.19,132.97,0,144.07,0c1.5,0,3,0,4.5,0,9.06.02,11.84,2.5,12.88,12.01,4.19-.46,8.4-.93,12.61-1.39,9.88-1.08,19.51-.88,28.79,3.59,6.37,3.07,23.2,2.68,32.17-.08.11-1.54.12-3.19.37-4.81.77-5.15,4.27-8.27,9.52-8.41,4-.11,8-.09,12-.01,5.78.12,9.44,3.26,9.95,9.03.38,4.3.37,8.68.03,12.98-.47,5.9-4.28,9.19-10.29,9.35-3,.08-6,.03-9,.02-8.25-.03-10.8-2.13-12.67-10.66-3.02.33-6.09.74-9.17.99-10.2.82-20.04.45-29.81-3.85-5.17-2.28-11.58-1.74-17.43-2.47-.12.51-.24,1.02-.37,1.53,2.17.97,4.33,1.96,6.51,2.91,12.87,5.65,23.7,14.03,33.25,24.27,1.46,1.57,4.14,2.78,6.28,2.82,13.49.25,26.99.11,40.49.13,16.3.03,26.07,9.72,26.1,26.16.07,39.33.02,78.66.02,117.98,0,7.83.05,15.66-.01,23.5-.13,16.44-9.72,26.16-26.13,26.21-28.83.09-57.66.11-86.49-.08-3.86-.03-5.71,1.21-6.79,4.75-2.5,8.24-2.64,16.31.44,24.46.98,2.6,2.28,3.74,5.1,3.54,2.98-.21,6.07-.41,8.97.14,1.53.29,2.77,2.15,4.14,3.31-1.41,1.06-2.79,2.98-4.23,3.03-8.66.3-17.33.19-25.99.19-17.83,0-35.66-.02-53.49-.05-2.48,0-5.57.47-5.59-3.19-.03-3.51,2.95-3.42,5.5-3.47.83-.02,1.67,0,2.5,0,9.81-.01,11.53-1.16,12.13-11,.34-5.53-.87-11.17-1.54-16.75-.45-3.75-2.62-4.96-6.5-4.94-28.83.17-57.66.06-86.49.11-9.66.02-17.92-3-22.77-11.67-2.09-3.75-3.36-8.48-3.38-12.78C-.05,169.07-.02,120.74.06,72.41c.02-14.47,10.12-24.37,24.61-24.45,13.83-.07,27.66.04,41.49-.09,1.81-.02,4.04-.5,5.36-1.61,6.46-5.48,12.25-11.84,19.09-16.75,6.69-4.79,14.37-8.19,22.14-12.49ZM63.15,54.97c-13.51,0-28.13-.59-42.68.22-8.58.48-13.97,8.23-13.98,17.92-.08,47.82-.1,95.64,0,143.46.03,11.7,7.19,18.5,18.91,18.5,79.98.02,159.96.02,239.93,0,11.89,0,18.79-7.05,18.8-19.06.02-47.49.02-94.97,0-142.46,0-11.89-6.95-18.87-18.93-19.02-8.16-.1-16.33-.02-24.49-.02-4.77,0-9.54,0-13.87,0,5,12.29,9.82,24.14,14.81,36.41-.12,0,.53.07,1.19.09,8.24.25,11.45,3.48,11.51,11.56.01,2.17,0,4.33,0,6.5,0,10.81-2.69,13.47-13.58,13.49-16.72.03-17.86-1.1-17.84-17.79,0-9.59,1.22-11.34,10.09-14.5-6.2-37.52-42.75-66.99-71.57-68.97-1.63,7.86-4.16,9.92-12.28,9.96-1.83,0-3.67,0-5.5,0-10.43,0-11.35-.62-14.95-10.11-31.06,3.43-64.94,33.15-71.11,69.43,5.47,1.02,9.76,3.57,10.13,9.77.26,4.32.26,8.67-.02,12.99-.35,5.43-3.89,8.84-9.35,9.13-4.15.22-8.34.22-12.49.01-5.83-.28-9.49-4.11-9.69-9.92-.11-3.16-.04-6.33-.02-9.5.03-8.17,3.05-11.31,11.17-12.12,1.26-.13,3.06-1.28,3.48-2.39,4.24-11.1,8.25-22.29,12.36-33.56ZM125.38,274.06h40.36c-4.03-10.74-3.67-21.26-.04-31.68h-40.37q3.31,15.68.05,31.68ZM30.4,16.41q-.04,9.42,9.54,9.42c1.32,0,2.65-.05,3.97,0,2.96.12,5.33-1.15,4.79-4.18-.84-4.71,2.85-10.31-2.57-14.14-.24-.17-.64-.15-.97-.15-3.8,0-7.64-.28-11.39.18-1.24.15-2.75,2.04-3.24,3.45-.56,1.62-.13,3.59-.13,5.41ZM154.33,15.54c0-1.33-.06-2.66.01-3.99.13-2.55-.26-5.16-3.38-4.92-4.89.37-10.3-2.33-14.56,2.13-.36.38-.23,1.28-.23,1.94-.02,3.33.06,6.66-.03,9.98-.08,2.98,1.42,4.24,4.24,4.25,1.5,0,2.99,0,4.49.01,11.13.11,9.34-.09,9.46-9.4ZM242.09,16.37c-.06,9.03-1.5,9.64,9.49,9.46,1.16-.02,2.33-.07,3.49,0,3.88.24,5.27-1.58,5.19-5.4-.34-14.9,2.22-12.92-13.34-13.15-3.71-.06-5.16,1.53-4.84,5.1.12,1.32.02,2.66.02,3.99ZM238.62,115.98q9.24,0,9.24-9.24c0-1-.1-2.01.02-3,.53-4.51-1.29-6.22-5.94-6.09-14.14.4-12.33-1.77-12.6,12.53-.08,4.28,1.39,6.29,5.79,5.81,1.15-.13,2.33-.02,3.5-.02ZM61.11,106.85q0-9.08-9.22-9.11c-1.33,0-2.66.08-3.98-.02-3.58-.28-5.11,1.2-5.04,4.9.31,15.63-2.04,13.04,13,13.4,3.83.09,5.64-1.25,5.26-5.19-.13-1.32-.02-2.66-.02-3.98Z"/>
      <path class="cls-1" d="M126.32,163.04c0,12.37,0,24.5,0,36.62,0,1.67.34,3.45-.14,4.96-.41,1.31-1.77,2.31-2.71,3.45-1.16-1.11-3.22-2.15-3.32-3.35-.4-4.8-.2-9.65-.21-14.48,0-8,.13-16-.12-23.98-.05-1.54-1.23-3.73-2.53-4.43-7.13-3.86-10.17-8.57-9.32-15.43.74-6.04,5.06-10.33,12.23-12.13.6-.15,1.22-.24,2.01-.4-.48-7.53-3.79-13.2-9-18-7.88-7.27-7.93-7.98-2.48-17.24,10.13-17.2,20.25-34.41,30.38-51.61,3.33-5.65,5.17-5.62,8.51.06,10.45,17.79,20.93,35.55,31.38,53.34,4.05,6.9,3.88,8.73-2.22,14.11-5.71,5.04-9.68,10.9-10.48,19.06,1.42.41,2.94.8,4.43,1.28,6.02,1.93,9.9,6.81,10.21,12.81.3,5.77-2.78,11.05-8.51,13.41-2.82,1.16-3.58,2.68-3.54,5.54.14,11.33.06,22.66.06,33.98,0,1.17.38,2.56-.12,3.45-.85,1.51-2.27,2.7-3.45,4.02-1.06-1.39-3.01-2.75-3.04-4.16-.25-11.49-.15-22.99-.15-34.48,0-1.98,0-3.95,0-6.39h-37.86ZM142.01,60.27c-.29-.09-.57-.18-.86-.27-8.76,14.9-17.56,29.77-26.2,44.74-.54.94-.39,3.2.32,3.81,7.94,6.7,12.94,15.01,13.97,25.63,10.2,0,19.84.13,29.48-.17,1.18-.04,3.05-2.22,3.29-3.64,1.22-6.99,4.31-12.9,9.33-17.81,1.89-1.85,4-3.46,6-5.17-9.43-16-18.41-31.24-27.39-46.48-.41.08-.81.16-1.22.24,0,6.21.09,12.43-.04,18.64-.05,2.73.57,4.44,3.31,5.87,6.12,3.19,8.75,9.87,6.99,16.09-1.67,5.89-7.78,10.45-13.86,10.33-6.4-.12-11.93-4.68-13.64-11.23-1.5-5.74,1.59-12.13,7.48-15.47,1-.57,2.03-1.09,3.02-1.61v-23.51ZM145.51,140.98c-7.48,0-14.96-.04-22.43.01-5.34.04-8.76,3.03-8.69,7.46.07,4.28,3.38,7.35,8.36,7.38,15.12.08,30.25.08,45.37,0,5.04-.03,8.07-3.05,8.03-7.55-.04-4.48-3.05-7.24-8.2-7.28-7.48-.07-14.96-.02-22.43-.02ZM152.78,97.94c.02-4.07-3.1-7.16-7.28-7.21-4.32-.05-7.37,2.77-7.5,6.92-.13,4.27,3.2,7.66,7.47,7.6,4.05-.05,7.29-3.29,7.31-7.32Z"/>
      <path class="cls-1" d="M56.83,170.2c8.65,0,17.3-.18,25.94.16,1.75.07,3.42,2.11,5.13,3.25-1.74,1.13-3.46,3.21-5.21,3.24-17.13.25-34.26.24-51.38,0-1.77-.02-4.78-1.79-5.01-3.13-.62-3.59,2.58-3.5,5.1-3.51,8.48-.03,16.96-.01,25.44-.01Z"/>
      <path class="cls-1" d="M234.15,170.2c8.47,0,16.95-.19,25.41.15,1.76.07,3.44,2.08,5.15,3.19-1.7,1.15-3.39,3.27-5.11,3.29-17.27.25-34.55.25-51.81-.01-1.63-.02-3.23-2.28-4.85-3.5,1.6-1.04,3.18-2.93,4.81-2.99,8.79-.3,17.6-.14,26.4-.14Z"/>
      <path class="cls-1" d="M57.18,192.62c-8.48,0-16.96.03-25.43-.02-2.44-.01-5.51.43-5.64-3.21-.14-3.71,2.85-3.41,5.36-3.41,16.96,0,33.91,0,50.87-.01,2.59,0,5.53-.08,5.44,3.42-.09,3.52-3.17,3.21-5.66,3.22-8.31.03-16.62,0-24.93.01Z"/>
      <path class="cls-1" d="M233.7,192.62c-8.33,0-16.67.03-25-.01-2.46-.01-5.55.38-5.69-3.21-.14-3.66,2.86-3.42,5.4-3.42,17,0,34-.09,51,.14,1.77.02,4.82,1.78,5,3.06.5,3.57-2.68,3.43-5.21,3.44-8.5.02-17,0-25.5,0Z"/>
      <path class="cls-1" d="M42.97,208.16c-4.33,0-8.68.27-12.97-.15-1.41-.14-2.64-2.07-3.96-3.18,1.27-1.01,2.51-2.85,3.81-2.89,8.82-.26,17.65-.26,26.46,0,1.29.04,2.52,1.95,3.78,2.99-1.38,1.08-2.68,2.94-4.15,3.08-4.29.42-8.64.15-12.97.15Z"/>
      <path class="cls-1" d="M247.61,208.16c-4.32,0-8.67.27-12.95-.15-1.44-.14-2.71-2.06-4.05-3.16,1.28-1.02,2.54-2.87,3.85-2.91,8.8-.26,17.62-.26,26.43,0,1.29.04,2.51,1.93,3.77,2.96-1.36,1.09-2.64,2.97-4.08,3.11-4.28.42-8.63.15-12.95.15Z"/>
    </g>
  </g>
</svg>