<?xml version="1.0" encoding="UTF-8"?>
<svg id="Layer_2" data-name="Layer 2" xmlns="http://www.w3.org/2000/svg" viewBox="0 0 144 141.34">
  <defs>
    <style>
      .cls-1 {
        fill: #fff;
        stroke-width: 0px;
      }
    </style>
  </defs>
  <g id="Account-90">
    <g>
      <path class="cls-1" d="M71.79,105.86c-2.55-.75-4.93-1.18-7.07-2.13-19.42-8.65-38.77-17.45-58.2-26.07C2.68,75.96-.06,73.56.04,69.24c.09-4.12,2.82-6.37,6.48-8,19.17-8.5,38.31-17.11,57.41-25.77,5.37-2.44,10.56-2.4,15.89,0,19.37,8.75,38.76,17.48,58.16,26.15,3.41,1.52,5.57,3.84,5.64,7.65.07,4-2.13,6.43-5.7,8.02-19.54,8.72-39.03,17.56-58.57,26.27-2.4,1.07-5.05,1.55-7.54,2.29ZM132.79,69.56c-1.73-.9-2.56-1.38-3.43-1.76-17.58-7.88-35.18-15.71-52.72-23.67-3.36-1.53-6.4-1.43-9.69.07-17.41,7.9-34.87,15.71-52.3,23.58-.94.42-1.79,1.05-3.06,1.81,1.73.88,2.93,1.56,4.19,2.12,16.54,7.44,33.16,14.73,49.6,22.39,4.64,2.16,8.63,2.41,13.11-.11,3.54-1.99,7.41-3.39,11.13-5.05,14.1-6.32,28.19-12.65,43.17-19.37Z"/>
      <path class="cls-1" d="M28.25,97.54c-5.99,2.71-11.3,5.12-17.26,7.82,4.16,1.91,7.76,3.6,11.39,5.23,14.88,6.69,29.73,13.46,44.7,19.96,2.26.98,5.52,1.69,7.57.8,19.22-8.32,38.29-17.01,58.1-25.91-6.02-2.85-11.46-5.42-17.65-8.34,3.81-1.69,6.75-2.99,9.68-4.28.38-.17.91-.54,1.16-.41,5.45,2.76,11.53,4.78,16.09,8.62,4.01,3.37,1.48,9.64-4.05,12.15-14.09,6.39-28.22,12.7-42.33,19.05-5.52,2.48-11.05,4.92-16.54,7.46-4.91,2.27-9.68,2.2-14.63-.05-19.34-8.79-38.71-17.51-58.12-26.13C2.66,111.85.02,109.52,0,105.42c-.02-4.1,2.47-6.71,6.27-8.11,1.05-.39,2.04-.95,3.06-1.42q9.07-4.17,18.91,1.65Z"/>
      <path class="cls-1" d="M125.82,15.39c3.61,0,6.56-.06,9.5.02,3.21.08,6.19.88,6.03,4.84-.14,3.57-2.81,4.51-5.97,4.48-2.95-.03-5.9,0-9.55,0,0,3.24-.03,6.27,0,9.29.04,3.28-.69,6.18-4.65,6.14-3.65-.04-4.51-2.74-4.48-5.9.03-2.95,0-5.89,0-9.54-3.52,0-6.69,0-9.87,0-3.22,0-5.71-1.16-5.7-4.74,0-3.38,2.49-4.49,5.46-4.57,3.08-.08,6.17-.02,10.11-.02,0-3.46-.05-6.62.01-9.77.06-3.11.96-5.73,4.74-5.62,3.54.1,4.3,2.65,4.34,5.57.05,3.07.01,6.14.01,9.82Z"/>
    </g>
  </g>
</svg>