<?xml version="1.0" encoding="UTF-8"?>
<svg id="Layer_2" data-name="Layer 2" xmlns="http://www.w3.org/2000/svg" viewBox="0 0 387.96 375.6">
  <defs>
    <style>
      .cls-1 {
        fill: #fff;
        stroke-width: 0px;
      }
    </style>
  </defs>
  <g id="Account-90">
    <g>
      <path class="cls-1" d="M387.91,87.88c-.01-16.91-11.01-27.87-28.01-27.91-21.86-.05-44.09-.03-65.59-.02h-19.39c-.26.01-.52.01-.79,0-1.21-.03-2.58-.06-3.89.45-1.59.62-2.71,2.44-3,3.92-.4,2.09,2.25,3.77,3.48,4.03,1.33.28,2.64.26,3.9.23.32,0,.65,0,.97,0h35.58c15.81,0,31.61,0,47.42,0,13.64,0,20.56,6.88,20.56,20.44.02,57.16.01,114.31,0,171.46,0,1.14-.07,2.31-.14,3.55v.05H9.04V88.57c.01-12.91,6.39-19.48,19.51-20.1,1.62-.08,2.96-.99,4.14-1.79.44-.3.86-.59,1.25-.8l3.38-1.83c.04,55.66.02,112.58-.05,169.88,0,1.87.2,4.21,1.76,5.77s3.81,1.76,5.61,1.76h.03c68.26-.1,138.38-.1,208.43,0h.03c1.59,0,3.87-.19,5.38-1.71,1.51-1.53,1.69-3.78,1.67-5.57-.07-7.47-.06-15.08-.05-22.43.01-9.03.02-18.37-.11-27.56-.02-1.8.25-2.47.49-2.7.35-.35,1.34-.51,2.91-.52,11.69.08,23.59.08,35.08.07,13.9,0,28.26-.01,42.39.12,2.13.02,4.79-.18,6.54-1.93,1.73-1.74,1.93-4.36,1.9-6.68-.28-19.63-.27-38.78.01-56.92.03-2.14-.16-4.81-1.89-6.55-1.72-1.73-4.29-1.94-6.64-1.92-18.78.17-37.87.14-56.34.12-6.54-.01-13.08-.02-19.62-.02h-4.73v-4.78c0-7.5,0-15-.01-22.51-.01-23.58-.02-47.96.08-71.95.01-2.28-.2-4.62-1.81-6.22-1.22-1.23-3.01-1.8-5.64-1.8h-.02C190.45.09,124.38.1,44.79.02c-1.83.03-4.14.2-5.73,1.79-1.61,1.62-1.8,4.03-1.79,5.71.02,18.66.04,37.5.05,56.49l-3.46-1.69c-.38-.18-.79-.44-1.23-.7-1.15-.71-2.45-1.5-3.99-1.57-7.88-.37-15.07,2.14-20.25,7.08C3.13,72.15.23,79.39.22,87.52c0,20,.02,40,.04,60,.05,47.02.11,95.63-.26,143.44-.07,9.62,2.84,17.63,8.42,23.17,5.54,5.49,13.57,8.29,23.24,8.16,26.59-.42,53.66-.33,79.83-.25,11.03.04,22.07.08,33.11.08h4.13v35.41h-4.23c-4.73-.01-9.34-.02-13.96.01-6.68.04-9.44,2.59-9.52,8.82-.04,2.43.18,5.18,2.01,7.03,1.9,1.93,4.93,2.19,7.63,2.19,21.03.02,41.85.02,62.35.02,21.98,0,43.58,0,64.63-.02,6.77,0,9.43-2.5,9.46-8.89.02-2.3-.23-5.18-2.27-7.06-1.56-1.45-3.79-2.07-7.47-2.09-4.6-.02-9.21-.02-13.87-.01h-4.1v-35.41h37.54c27.09.01,55.11.03,82.67-.03,17.19-.03,28.3-11.12,28.32-28.25.05-72.29.05-139.66-.01-205.96ZM201.66,132.94c-.01-4.52-.03-9.03-.03-13.55v-3.25h138.52v56.1c-1.25.08-2.42.14-3.57.14-11.31,0-22.62,0-33.93,0-31.8,0-64.68-.01-97.02.12h-.1c-1.82,0-2.93-.22-3.38-.68s-.66-1.58-.63-3.42c.21-11.82.17-23.84.14-35.46ZM251.01,107.26h-4.05c-4.24,0-8.47.01-12.71.02-10.9.02-22.18.05-33.27-.1-2.21-.02-4.67.17-6.32,1.81-1.67,1.68-1.84,4.24-1.81,6.02.24,18.26.24,37.38.01,58.45-.02,1.89.17,4.26,1.79,5.89,1.63,1.62,4.11,1.8,6.04,1.78,11.13-.14,22.46-.12,33.42-.09,4.19.01,8.37.01,12.55.01h4.3v51.14H46.48V9.05h204.53v98.21ZM378.86,298.05c-.55,7.57-6.68,13.73-14.9,14.97-1.39.21-2.92.32-4.68.32-42.47,0-84.94,0-127.41,0-67.64,0-135.28,0-202.92.02h-.01c-7.43,0-12.41-2.03-15.66-6.4-2.38-3.2-3.78-6.32-3.95-8.78-.43-6.16-.35-12.29-.27-18.78.03-1.97.05-3.95.06-5.95h369.89c.01,2.16.05,4.3.08,6.4.11,6.28.21,12.22-.23,18.19ZM254.54,368.97h-119.89c-1.16,0-2.46.31-3.46-.1-1.23-.5-2.22-1.62-3.31-2.47,1.07-.7,2.12-1.99,3.21-2.02,7.82-.17,15.65-.09,23.47-.09,33.47-.01,66.94-.01,100.41-.01,1.17,0,2.46-.25,3.45.18.8.34,1.57,1.5,1.69,2.38.08.59-.9,1.73-1.6,1.93-1.24.35-2.64.2-3.97.2ZM158.15,357.1v-34.64h71.94v34.64h-71.94Z"/>
      <path class="cls-1" d="M194.1,278.56h-.04c-7.8,0-14.46,6.55-14.55,14.31-.04,3.74,1.43,7.3,4.12,10.05,2.76,2.81,6.43,4.37,10.31,4.39h.1c3.87,0,7.46-1.45,10.11-4.08,2.68-2.66,4.17-6.28,4.19-10.2s-1.46-7.58-4.15-10.29c-2.66-2.68-6.24-4.17-10.09-4.18ZM199.73,292.99c-.01,2.96-2.63,5.59-5.61,5.63-1.52,0-3.03-.64-4.17-1.8-1.1-1.13-1.7-2.59-1.65-4.02.12-2.98,2.69-5.39,5.76-5.39h.08c1.55.02,2.94.66,3.95,1.66,1.02,1.02,1.64,2.4,1.64,3.92Z"/>
      <path class="cls-1" d="M185.42,196.39c-14.79.15-29.83.13-44.38.11-5.35-.01-10.68-.02-16.03-.02s-10.49.01-15.73.01c-14.98.02-30.47.04-45.7-.08-1.64.01-4.06.15-5.62,1.77-1.54,1.59-1.63,3.9-1.56,5.49.24,5.27.15,10.5.03,15.85-.05,2.28.48,3.95,1.61,5.11,1.14,1.16,2.8,1.72,5.09,1.72h.02c42.33-.06,83.84-.06,123.37,0h.02c2.24,0,3.87-.55,4.98-1.69,1.49-1.53,1.61-3.71,1.56-5.22v-.27c-.14-4.95-.29-10.06.05-15.01.11-1.72.08-4.2-1.51-5.89-1.61-1.7-4.13-1.89-6.2-1.88ZM183.93,205.62v11.44h-118.52v-11.44h118.52Z"/>
      <path class="cls-1" d="M130.69,105.78c1.5,1.52,3.72,1.68,5.25,1.66,15.37-.16,30.98-.16,46.4,0h.22c1.66,0,3.68-.22,5.1-1.64,1.5-1.49,1.65-3.7,1.63-5.23-.13-13.91-.13-28.66-.01-46.42.01-1.65-.16-3.73-1.62-5.18-1.45-1.45-3.54-1.6-4.95-1.59-14.35.12-29.69.12-46.91,0-1.49,0-3.69.15-5.15,1.64-1.46,1.48-1.57,3.58-1.53,5.04.14,5.41.11,10.93.08,16.27-.01,2.22-.02,4.43-.02,6.64s.01,4.58.02,6.87c.03,5.43.06,11.05-.08,16.55-.05,1.71.09,3.87,1.57,5.38ZM138.32,98.22v-41.83h41.82v41.83h-41.82Z"/>
      <path class="cls-1" d="M58.04,105.89c1.45,1.43,3.47,1.56,4.88,1.53,5.44-.12,10.98-.09,16.34-.07,2.23.01,4.42,0,6.7.02,2.15,0,4.31,0,6.47-.02,5.21-.02,10.59-.05,15.87.07.14,0,.28.01.43.01,1.59,0,3.46-.23,4.8-1.55,1.46-1.44,1.61-3.52,1.6-4.95-.14-14.02-.14-28.88-.01-45.44.01-1.5-.15-3.66-1.63-5.15-1.48-1.47-3.57-1.62-5.01-1.62-13.59.1-28.03.1-45.44.02-1.44,0-3.53.15-5,1.63-1.09,1.08-1.61,2.62-1.6,4.72.07,16.31.06,31.34-.01,45.95,0,1.4.15,3.42,1.61,4.85ZM65.08,70.94c-.03-3.81-.07-7.76.14-11.59.04-.39.59-1.33.99-1.72,11.17-.18,22.16-.17,33.81-.16h6.14v40.88h-41.06v-23.12c0-1.43-.01-2.86-.02-4.29Z"/>
      <path class="cls-1" d="M58.95,123.17c1.2.92,2.56,1.98,4.25,1.99,14.01.07,28.2.11,42.47.11s27.65-.03,41.5-.11c1.68-.01,3.08-.96,4.31-1.81.46-.32.9-.62,1.29-.83l3.45-1.86-3.53-1.7c-.41-.2-.85-.47-1.32-.76-1.23-.75-2.62-1.61-4.25-1.63-10.86-.13-21.89-.12-32.55-.11-3.15.01-6.3.01-9.45.01h-9.35c-10.7-.01-21.76-.03-32.65.09-1.55.02-2.86.81-4.02,1.51-.43.27-.84.51-1.21.69l-3.35,1.6,3.17,1.92c.38.23.8.55,1.24.89Z"/>
      <path class="cls-1" d="M59.19,158.16c1.17.66,2.49,1.41,4.03,1.43,7.65.08,15.39.1,23.03.1,3.22,0,6.42-.01,9.59-.01h9.34c3.18-.01,6.35,0,9.53,0,10.79.01,21.95.02,32.92-.11,1.58-.02,2.87-.92,4-1.71.41-.29.8-.56,1.15-.76l3.12-1.72-3.1-1.77c-.35-.2-.75-.48-1.17-.79-1.15-.84-2.46-1.79-4.07-1.79-28.95-.15-57.34-.14-84.39.01-1.7.01-3.06,1.09-4.25,2.04-.44.34-.85.67-1.22.9l-3.19,2,3.44,1.53c.38.17.8.4,1.24.65Z"/>
      <path class="cls-1" d="M58.96,141.15c1.21.91,2.58,1.94,4.27,1.95,12.6.08,25.33.12,38.09.12s25.25-.04,37.85-.12c1.69,0,3.08-1,4.31-1.87.46-.32.89-.63,1.29-.85l3.43-1.91-3.57-1.65c-.42-.2-.87-.46-1.34-.74-1.24-.72-2.64-1.54-4.26-1.56-9.59-.14-19.33-.13-28.75-.11-5.84.01-11.66.01-17.49,0-9.74-.01-19.82-.02-29.73.1-1.55.02-2.85.83-4,1.54-.43.27-.84.52-1.21.7l-3.33,1.63,3.2,1.89c.38.23.8.54,1.24.88Z"/>
      <path class="cls-1" d="M69.28,37.11h.15c6.97-.08,12.6-5.84,12.6-12.85v-.07c-.04-7.19-5.5-12.59-12.72-12.59h-.09c-3.46.02-6.69,1.38-9.09,3.82-2.37,2.4-3.66,5.59-3.62,8.97.03,3.33,1.45,6.62,3.91,9.03,2.43,2.38,5.57,3.69,8.86,3.69ZM65.3,24.16c.07-1.17.57-3.84,3.82-3.84.1,0,.21,0,.32,0,1.65.09,3.57.64,3.93,4.12-.48,2.65-1.89,3.95-4.21,3.85-1.25-.05-2.26-.47-2.94-1.22-.66-.73-.98-1.74-.92-2.92Z"/>
      <path class="cls-1" d="M58.62,172.89c.91.69,2.05,1.55,3.47,1.61,3.81.16,7.66.13,11.39.11,1.34-.01,2.68-.02,4.02-.02,1.42,0,2.82,0,4.24.03,1.4.01,2.81.02,4.24.02,2.38,0,4.79-.03,7.18-.15,1.49-.07,2.66-.92,3.7-1.68.37-.26.72-.51,1.03-.69l2.8-1.62-2.7-1.78c-.3-.2-.64-.48-1-.78-1.04-.87-2.23-1.86-3.79-1.89-10.36-.2-20.78-.19-30.97,0-1.58.03-2.78,1.16-3.74,2.06-.33.32-.65.61-.93.82l-2.4,1.78,2.56,1.54c.27.16.58.39.9.64Z"/>
      <path class="cls-1" d="M142.55,24.85c.75.86,1.69,1.93,3.12,2.07,2.24.23,4.49.19,6.65.15.16,0,.31,0,.46-.01h2c.91.01,1.82.02,2.72.03.92.02,1.84.03,2.77.03,1.52,0,3.05-.04,4.58-.17,1.43-.12,2.42-1.13,3.21-1.94.26-.26.5-.51.71-.68l1.87-1.51-1.84-1.56c-.19-.17-.43-.42-.68-.69-.79-.86-1.79-1.94-3.25-1.98-6.2-.19-12.58-.2-18.95-.01-1.44.05-2.44,1.06-3.24,1.88-.25.25-.49.49-.69.65l-1.84,1.47,1.75,1.58c.19.17.41.42.65.69Z"/>
      <path class="cls-1" d="M211.71,24.92c.85.84,1.9,1.88,3.36,2.04,2.37.24,4.74.2,7.04.15,1.68-.03,3.36-.03,5.04,0,.82.02,1.65.04,2.48.04,1.28,0,2.57-.05,3.86-.21,1.45-.18,2.48-1.22,3.31-2.05.28-.29.55-.56.79-.75l1.99-1.61-2.05-1.54c-.21-.15-.45-.39-.72-.64-.81-.78-1.83-1.75-3.25-1.79-6.18-.18-12.44-.18-18.62,0-1.42.04-2.44,1.01-3.26,1.79-.26.25-.51.49-.72.64l-2.06,1.55,2.02,1.61c.24.19.51.46.79.75Z"/>
      <path class="cls-1" d="M107.86,24.64c.76.99,1.69,2.23,3.23,2.28,3.17.1,6.36.15,9.57.15s6.62-.05,9.91-.16c1.53-.05,2.46-1.29,3.21-2.28.22-.29.44-.58.61-.77l1.51-1.57-1.7-1.37c-.2-.16-.39-.36-.59-.56-.73-.74-1.63-1.65-2.97-1.75-2.35-.17-4.72-.14-7.01-.11h-.56l-2-.03c-.87,0-1.74-.01-2.61-.02-2.28-.04-4.63-.07-6.98.12-1.35.11-2.36.97-3.17,1.66-.25.21-.5.42-.75.59l-1.96,1.34,1.64,1.71c.18.18.41.48.62.77Z"/>
      <path class="cls-1" d="M177.03,25.11c.84.8,1.88,1.81,3.33,1.85,3.23.11,6.41.16,9.51.16s6.1-.05,9.01-.15c1.52-.06,2.6-1.16,3.47-2.05.29-.29.56-.57.79-.75l2.17-1.75-2.34-1.5c-.29-.19-.58-.42-.87-.65-.88-.69-1.97-1.56-3.36-1.7-2.24-.22-4.48-.18-6.65-.14-.83.02-1.66.04-2.49.04s-1.7-.02-2.55-.03c-2.15-.05-4.37-.09-6.6.15-1.43.16-2.49,1.15-3.34,1.94-.29.27-.57.53-.81.71l-2.12,1.59,2.11,1.6c.22.17.47.41.74.68Z"/>
      <path class="cls-1" d="M285.17,138.5c12.14,0,24.27.07,36.41-.1,1.41-.02,2.8-1.41,4.2-2.16-1.42-.83-2.84-2.37-4.27-2.38-23.93-.15-47.87-.15-71.8,0-1.48.01-2.94,1.74-4.41,2.66,1.49.66,2.97,1.86,4.47,1.88,11.8.16,23.6.09,35.4.09Z"/>
      <path class="cls-1" d="M227.71,159.44c.06,0,.13,0,.19-.01,6.22-.07,11.45-3.71,13.8-8.99.37-.8.66-1.64.88-2.52.31-1.25.47-2.56.47-3.91-.01-2.49-.59-4.88-1.69-7.02-.04-.09-.08-.17-.13-.26-.74-1.39-1.7-2.67-2.87-3.8-3-2.9-6.94-4.42-11.13-4.3-8.38.25-15.07,7.32-14.9,15.75.16,8.34,7.04,15.06,15.38,15.06ZM228.15,133.45c5.78.23,10.36,5.12,10.21,10.9-.07,2.86-1.31,5.44-3.23,7.32-1.93,1.86-4.56,3.02-7.42,3.02h-.11c-2.87-.02-5.66-1.26-7.66-3.39-1.98-2.12-3.03-4.97-2.87-7.82.33-5.76,5.31-10.26,11.08-10.03Z"/>
      <path class="cls-1" d="M308.52,152.17c1.42-.01,2.82-1.55,4.23-2.37-1.39-.77-2.78-2.19-4.19-2.21-9.96-.2-19.93-.11-29.9-.11s-20.59-.07-30.89.09c-1.31.02-2.61,1.27-3.91,1.95,1.29.92,2.57,2.62,3.87,2.63,20.26.17,40.53.17,60.79.02Z"/>
    </g>
  </g>
</svg>