<?xml version="1.0" encoding="UTF-8"?>
<svg id="Layer_2" data-name="Layer 2" xmlns="http://www.w3.org/2000/svg" viewBox="0 0 189.72 190.04">
  <defs>
    <style>
      .cls-1 {
        fill: #fff;
        stroke-width: 0px;
      }
    </style>
  </defs>
  <g id="Account-90">
    <g>
      <path class="cls-1" d="M182.64,168.19V21.73h7.07V.06h-21.95v7.01H21.79V0H.08v21.86h7.1v146.36H0v21.82h21.9v-7.01h146.05v6.97h21.77v-21.81h-7.08ZM176.27,181.97v-5.45h5.26v5.45h-5.26ZM181.53,8.14v5.39h-5.32v-5.39h5.32ZM15.69,168.15V21.92l6.07-.28v-5.97h146.13v5.95l6.11.29v146.27h-6.01v6.17H21.95v-5.88l-6.25-.3ZM13.51,176.59v5.35h-5.32v-5.35h5.32ZM13.58,8.19v5.27h-5.42v-5.27h5.42Z"/>
      <path class="cls-1" d="M109.04,51.81c1.39.89,4.04,2.1,6.06,3.98,6.06,5.67,11.87,11.61,17.77,17.44,7.83,7.75,7.09,14.67-2.07,20.73-1.42.94-2.62,2.49-3.45,4.01-3.55,6.51-6.49,13.4-10.54,19.58-1.98,3.02-5.57,5.89-9,6.89-16.6,4.85-33.38,9.08-50.12,13.44-4.77,1.24-7.12-.97-5.9-5.82,4.2-16.64,8.56-33.24,12.97-49.83,1.3-4.91,4.48-8.38,9.12-10.54,6.46-3.01,12.92-6.03,19.3-9.22,1.29-.65,2.35-1.93,3.27-3.11,2.91-3.72,5.87-7.29,12.6-7.56ZM70.2,125.3c.12.21.24.42.36.64,11.91-3.18,23.86-6.24,35.71-9.65,1.67-.48,3.25-2.43,4.19-4.08,3.02-5.31,5.63-10.85,8.57-16.21,1.09-1.99.92-3.28-.74-4.9-6.34-6.22-12.59-12.54-18.74-18.95-1.7-1.77-3.11-2.06-5.31-.95-5.45,2.76-11.21,4.97-16.47,8.03-2.24,1.3-4.28,3.92-5.17,6.39-1.91,5.32-3,10.93-4.43,16.42-1.45,5.56-2.9,11.12-4.35,16.69.36.24.71.47,1.07.71,2.98-3.14,5.89-6.36,8.95-9.41,2.48-2.47,5.42-4.61,2.76-8.74-.47-.73-.22-2-.14-3.01.62-7.82,7.72-13.43,15.57-12.33,7.99,1.12,13.03,8.76,11.32,17.16-1.42,6.98-9.26,11.54-16.56,9.74-1.26-.31-3.19-.61-3.93.06-4.37,3.98-8.47,8.25-12.67,12.41ZM107.81,59.42c-2.05,1.95-3.27,3.11-4.52,4.29,7.96,7.69,15.64,15.1,23.56,22.74.59-1.53,5.09-2.12,1.91-5.51-6.73-7.18-13.72-14.13-20.95-21.53ZM90.16,104.75c3.03.02,5.3-2.17,5.32-5.14.02-2.91-2.74-5.8-5.59-5.57-2.97.24-4.84,1.87-4.98,5.02-.15,3.22,2.13,5.66,5.25,5.69Z"/>
    </g>
  </g>
</svg>